<svg id="svg" version="1.1" xmlns="http://www.w3.org/2000/svg" xmlns:xlink="http://www.w3.org/1999/xlink" width="400" height="362.66666666666663" viewBox="0, 0, 400,362.66666666666663"><g id="svgg"><path id="path0" d="M217.320 78.673 C 215.675 78.745,214.584 78.940,214.707 79.139 C 214.832 79.341,214.467 79.391,213.811 79.260 C 213.117 79.121,212.704 79.186,212.704 79.435 C 212.704 79.653,212.459 79.738,212.160 79.623 C 211.860 79.508,211.615 79.605,211.615 79.837 C 211.615 80.070,211.452 80.160,211.252 80.036 C 211.053 79.913,210.887 80.026,210.884 80.287 C 210.880 80.635,210.805 80.648,210.607 80.337 C 210.270 79.805,208.487 80.167,207.308 81.005 C 206.839 81.339,206.564 81.788,206.697 82.004 C 206.830 82.219,206.780 82.396,206.585 82.396 C 206.390 82.396,206.158 82.191,206.068 81.942 C 205.946 81.601,205.646 81.646,204.859 82.122 C 203.804 82.760,201.327 83.978,198.836 85.084 C 197.160 85.828,196.894 86.238,197.618 86.962 C 197.930 87.274,198.185 87.445,198.185 87.341 C 198.185 87.238,199.001 87.396,199.998 87.692 C 202.064 88.305,203.267 87.948,203.267 86.720 C 203.267 86.229,203.678 85.816,204.517 85.466 C 205.205 85.179,205.899 84.723,206.060 84.453 C 206.477 83.752,208.327 82.617,208.603 82.892 C 208.731 83.020,208.464 83.520,208.009 84.004 C 207.148 84.921,207.190 85.160,208.482 86.646 C 209.196 87.467,210.849 87.748,212.111 87.264 C 212.417 87.147,212.933 86.249,213.259 85.268 C 213.585 84.287,213.961 83.490,214.095 83.496 C 214.522 83.516,215.654 85.294,215.450 85.625 C 215.342 85.800,215.489 86.139,215.778 86.379 C 216.587 87.050,219.352 85.413,219.092 84.417 C 218.638 82.683,222.009 81.517,222.862 83.112 C 224.077 85.382,226.863 87.477,228.667 87.477 C 230.721 87.477,236.298 89.202,236.298 89.838 C 236.298 90.797,237.616 91.506,238.882 91.228 C 241.578 90.637,245.894 90.867,246.037 91.608 C 246.215 92.527,245.452 92.934,244.344 92.513 C 243.686 92.263,243.354 92.297,243.139 92.636 C 242.641 93.421,242.759 93.650,244.947 96.140 C 248.131 99.763,248.324 101.115,245.599 100.723 C 244.484 100.563,243.735 100.697,242.664 101.252 C 241.873 101.661,240.966 101.996,240.649 101.996 C 240.332 101.996,239.888 102.181,239.661 102.408 C 238.998 103.071,238.261 102.533,237.401 100.755 C 236.527 98.950,235.301 98.481,234.951 99.819 C 234.846 100.218,234.641 100.544,234.493 100.544 C 234.346 100.544,233.824 100.912,233.332 101.361 C 229.671 104.707,229.385 104.900,228.118 104.900 C 227.287 104.900,226.760 105.101,226.618 105.472 C 226.497 105.787,226.012 106.192,225.540 106.371 C 225.027 106.566,224.682 106.993,224.682 107.435 C 224.682 108.339,222.731 111.103,221.704 111.654 C 221.255 111.895,221.108 112.151,221.337 112.293 C 221.548 112.423,221.967 112.283,222.268 111.982 C 223.318 110.931,225.045 111.441,225.045 112.801 C 225.045 113.440,225.579 114.220,226.770 115.319 L 228.494 116.911 231.041 116.821 C 233.856 116.722,234.373 116.905,234.857 118.177 C 235.037 118.653,235.395 118.969,235.651 118.879 C 238.329 117.936,238.254 117.999,237.583 117.258 C 236.737 116.323,237.128 115.288,238.673 114.376 C 239.363 113.969,239.927 113.463,239.927 113.252 C 239.927 113.041,240.336 112.712,240.835 112.523 C 241.334 112.333,241.742 111.954,241.742 111.680 C 241.742 110.944,242.856 110.111,244.172 109.863 C 244.810 109.743,245.927 109.067,246.655 108.360 C 248.196 106.864,249.192 106.529,250.560 107.049 C 251.260 107.316,251.812 107.303,252.465 107.005 C 253.200 106.670,253.490 106.692,253.909 107.110 C 254.670 107.872,253.368 109.982,252.137 109.982 C 251.002 109.982,250.094 110.987,250.823 111.437 C 251.100 111.609,251.421 111.690,251.537 111.619 C 253.237 110.568,256.532 111.352,255.750 112.622 C 255.447 113.114,255.503 113.526,255.989 114.375 C 257.277 116.625,256.535 117.241,252.537 117.241 C 250.145 117.241,249.762 117.143,249.002 116.334 C 248.533 115.835,247.983 115.426,247.779 115.426 C 247.575 115.426,246.991 115.041,246.481 114.569 C 244.509 112.747,241.505 114.926,243.343 116.844 C 243.860 117.384,244.283 118.001,244.283 118.215 C 244.283 118.429,244.528 118.808,244.828 119.056 C 245.577 119.678,245.515 120.035,244.481 121.069 C 243.318 122.232,242.875 122.193,242.419 120.886 C 242.213 120.295,241.747 119.717,241.383 119.602 C 241.018 119.486,240.629 119.153,240.517 118.861 C 240.180 117.984,238.502 118.172,238.734 119.061 C 238.866 119.564,238.624 120.028,237.952 120.556 L 236.979 121.322 237.727 122.118 C 239.139 123.621,238.153 125.027,236.564 123.777 C 235.308 122.789,234.828 122.854,233.246 124.229 C 231.603 125.656,231.751 126.520,233.694 126.852 C 234.427 126.978,236.086 127.550,237.381 128.125 C 239.775 129.188,240.271 129.121,240.285 127.735 C 240.288 127.418,240.696 126.974,241.191 126.748 C 242.125 126.322,242.831 126.954,242.831 128.217 C 242.831 128.939,245.185 131.397,245.875 131.397 C 246.197 131.397,246.461 131.260,246.461 131.093 C 246.461 130.582,248.314 129.909,249.065 130.147 C 250.681 130.660,249.749 132.305,247.843 132.305 C 246.906 132.305,245.934 132.509,245.683 132.759 C 245.060 133.378,244.105 133.329,243.540 132.647 C 242.480 131.370,239.893 130.752,240.554 131.934 C 242.042 134.592,239.561 135.300,237.377 132.840 C 235.808 131.073,235.383 131.041,234.851 132.651 C 234.353 134.160,233.433 134.528,232.006 133.790 C 230.781 133.157,230.490 133.323,230.490 134.655 C 230.490 136.219,227.243 138.937,225.819 138.564 C 224.753 138.285,224.312 138.754,223.819 140.689 C 223.390 142.372,223.288 142.481,221.937 142.705 C 221.151 142.835,219.855 143.195,219.056 143.506 C 214.592 145.240,213.569 143.351,217.695 140.990 C 218.344 140.619,218.875 140.036,218.875 139.694 C 218.875 138.908,221.137 136.479,221.868 136.479 C 222.465 136.479,223.341 135.584,223.446 134.867 C 223.482 134.620,222.956 134.217,222.277 133.971 C 221.435 133.667,220.882 133.143,220.543 132.331 C 220.232 131.587,219.339 130.682,218.168 129.923 C 216.166 128.625,215.958 127.743,217.305 126.248 C 218.153 125.307,217.573 124.768,216.378 125.386 C 215.825 125.671,215.161 126.161,214.902 126.473 C 214.609 126.827,213.844 127.042,212.883 127.042 C 211.494 127.042,211.277 127.163,210.770 128.221 C 210.460 128.870,209.873 129.682,209.466 130.026 C 208.569 130.785,208.811 131.616,210.017 131.918 C 210.506 132.041,211.679 132.733,212.622 133.455 L 214.338 134.769 212.646 134.518 C 211.588 134.361,210.866 134.409,210.719 134.647 C 210.241 135.419,208.979 134.988,207.580 133.575 C 206.137 132.117,204.914 131.628,205.313 132.668 C 205.428 132.967,205.661 133.212,205.830 133.212 C 206.707 133.212,206.630 135.889,205.731 136.663 C 205.220 137.102,204.711 138.041,204.567 138.809 C 204.094 141.329,203.099 142.675,202.145 142.085 C 201.700 141.810,201.724 140.208,202.178 139.927 C 202.702 139.603,202.624 138.666,202.054 138.448 C 201.347 138.176,198.502 140.142,198.626 140.817 C 198.683 141.126,199.261 141.624,199.910 141.924 C 201.160 142.501,202.052 144.513,201.591 145.715 C 201.268 146.556,198.943 146.337,198.403 145.414 C 198.184 145.038,197.636 144.352,197.187 143.888 C 196.333 143.007,196.044 140.717,196.733 140.290 C 196.933 140.167,197.096 139.544,197.096 138.905 C 197.096 138.267,197.258 137.182,197.455 136.495 C 197.727 135.545,197.669 134.787,197.213 133.340 C 196.477 131.005,196.864 130.309,198.899 130.309 C 199.813 130.309,200.474 130.061,200.942 129.543 C 201.594 128.821,203.662 127.387,206.534 125.666 C 207.232 125.248,208.008 124.571,208.258 124.163 C 208.507 123.755,209.283 123.183,209.982 122.891 C 211.198 122.383,211.252 122.281,211.252 120.509 C 211.252 118.339,211.873 116.974,213.469 115.631 C 214.861 114.460,214.488 113.661,212.821 114.243 C 212.160 114.473,211.469 114.477,210.887 114.254 C 209.451 113.703,205.212 114.189,203.707 115.077 C 202.643 115.705,202.038 115.813,200.560 115.637 C 198.453 115.388,198.059 115.574,196.978 117.327 C 195.212 120.190,192.959 122.160,191.910 121.758 C 191.624 121.648,190.895 121.975,190.289 122.485 C 189.567 123.092,188.750 123.412,187.917 123.412 C 186.275 123.412,185.826 124.334,187.323 124.633 C 188.240 124.817,188.385 125.009,188.385 126.047 C 188.385 127.273,188.500 127.388,191.605 129.246 C 192.609 129.846,193.411 131.619,193.446 133.311 C 193.489 135.419,189.759 138.294,186.981 138.294 C 186.050 138.294,186.010 138.563,186.810 139.447 C 187.141 139.814,187.345 140.163,187.263 140.224 C 183.381 143.116,182.147 143.575,179.962 142.937 C 178.710 142.572,178.529 142.623,177.317 143.687 C 176.602 144.315,175.451 145.065,174.760 145.354 C 174.070 145.643,173.328 146.255,173.113 146.714 C 172.719 147.555,170.321 149.268,168.958 149.682 C 168.268 149.892,166.875 151.123,165.426 152.803 C 164.999 153.298,164.347 153.539,163.430 153.540 C 161.960 153.540,160.486 154.223,158.498 155.824 C 157.723 156.449,156.545 156.948,155.433 157.124 C 153.974 157.355,153.349 157.701,152.187 158.923 C 151.245 159.912,150.433 160.436,149.838 160.436 C 148.339 160.436,146.548 161.202,145.009 162.501 C 144.211 163.176,143.002 164.171,142.322 164.713 C 139.026 167.345,138.657 167.862,138.657 169.861 C 138.657 171.782,138.194 173.103,137.345 173.605 C 137.081 173.761,136.593 174.463,136.260 175.164 C 135.448 176.875,133.929 177.631,131.910 177.328 C 130.660 177.141,130.023 177.263,128.783 177.929 C 126.770 179.010,126.722 179.095,127.166 180.759 C 127.529 182.117,127.489 182.223,126.011 183.826 C 124.171 185.822,123.699 186.949,123.796 189.111 C 123.980 193.237,123.340 194.918,121.585 194.918 C 119.641 194.918,119.235 199.518,121.027 201.243 C 122.152 202.326,122.098 206.136,120.940 207.368 C 119.482 208.920,120.485 212.704,122.354 212.704 C 122.512 212.704,122.752 213.444,122.888 214.348 C 123.151 216.103,123.780 216.697,125.377 216.697 C 126.532 216.697,129.220 217.749,129.220 218.201 C 129.220 218.386,128.960 218.933,128.643 219.417 C 127.412 221.296,129.534 224.327,131.703 223.789 C 134.227 223.163,134.500 223.173,135.182 223.927 C 135.558 224.343,136.074 224.682,136.328 224.682 C 137.902 224.682,138.332 226.684,137.055 228.063 C 135.818 229.397,134.526 229.636,132.998 228.814 L 131.740 228.136 130.570 229.342 C 129.927 230.005,128.701 231.030,127.845 231.620 C 125.222 233.427,125.105 235.572,127.629 235.572 C 128.432 235.572,129.946 237.094,129.946 237.902 C 129.946 239.197,126.740 239.965,126.037 238.838 C 125.214 237.520,123.586 237.876,122.929 239.517 C 122.018 241.793,119.782 241.457,119.782 239.044 C 119.782 238.476,119.520 238.078,119.046 237.928 C 118.254 237.677,115.064 233.116,115.064 232.237 C 115.064 231.945,114.001 230.843,112.702 229.789 C 111.402 228.735,110.269 227.523,110.183 227.094 C 109.732 224.841,109.504 224.426,108.240 223.560 L 106.867 222.620 106.843 219.958 C 106.823 217.754,106.694 217.195,106.094 216.709 C 105.064 215.875,104.539 214.753,104.528 213.363 C 104.519 212.303,104.086 211.771,100.886 208.893 C 98.888 207.096,96.921 205.099,96.515 204.454 C 96.109 203.810,95.402 203.075,94.944 202.821 C 94.487 202.567,93.397 201.818,92.523 201.156 L 90.934 199.953 90.294 200.743 C 89.318 201.948,89.491 202.752,90.806 203.129 C 92.266 203.548,92.529 204.270,91.314 204.524 C 90.801 204.631,89.973 204.803,89.474 204.907 C 88.720 205.064,88.566 205.305,88.566 206.333 C 88.566 207.630,87.802 208.711,86.886 208.711 C 86.589 208.711,86.437 208.860,86.549 209.041 C 86.661 209.222,86.410 209.280,85.991 209.170 C 85.299 208.990,85.272 209.041,85.700 209.725 C 85.959 210.140,86.342 210.377,86.552 210.252 C 86.761 210.126,86.740 210.262,86.505 210.554 C 86.167 210.971,86.223 211.274,86.769 211.985 C 87.150 212.480,87.465 213.244,87.469 213.681 C 87.474 214.118,87.641 214.577,87.840 214.701 C 88.040 214.824,88.203 215.186,88.203 215.504 C 88.203 215.823,88.652 216.668,89.201 217.383 C 89.750 218.097,90.376 219.011,90.592 219.414 C 90.808 219.816,91.176 220.104,91.409 220.054 C 91.642 220.005,91.837 220.331,91.841 220.780 C 91.851 221.737,93.033 223.405,93.718 223.428 C 93.979 223.438,94.148 223.652,94.094 223.906 C 93.958 224.540,95.440 226.554,95.854 226.299 C 96.153 226.114,96.361 226.907,96.223 227.704 C 96.194 227.868,96.338 227.900,96.543 227.773 C 96.747 227.647,96.916 227.757,96.917 228.019 C 96.917 228.280,97.338 228.984,97.850 229.583 C 98.363 230.181,98.665 230.426,98.521 230.127 C 98.377 229.828,98.611 229.943,99.039 230.384 C 99.885 231.254,100.057 232.165,99.416 232.379 C 99.175 232.459,99.276 232.726,99.667 233.044 C 100.197 233.474,100.262 233.478,100.014 233.066 C 99.805 232.719,99.841 232.639,100.125 232.815 C 100.356 232.957,100.544 233.482,100.544 233.981 C 100.544 234.602,100.688 234.808,100.998 234.632 C 101.337 234.441,101.349 234.488,101.046 234.817 C 100.567 235.338,102.018 238.556,103.065 239.296 C 103.416 239.543,103.660 240.033,103.607 240.385 C 103.555 240.736,104.151 241.709,104.932 242.546 C 105.764 243.439,106.352 243.843,106.352 243.523 C 106.352 243.222,106.148 242.771,105.898 242.519 C 105.535 242.153,105.557 242.105,106.008 242.277 C 106.318 242.395,107.171 242.241,107.902 241.935 C 110.192 240.978,111.434 241.897,111.434 244.547 C 111.434 246.034,112.370 247.187,113.576 247.187 C 114.967 247.187,115.909 248.351,115.998 250.179 C 116.050 251.242,116.355 251.999,117.019 252.714 C 118.107 253.883,118.378 256.261,117.423 256.261 C 117.123 256.261,116.878 256.014,116.878 255.711 C 116.878 253.839,115.958 252.293,114.515 251.742 C 112.748 251.067,112.160 251.035,112.160 251.612 C 112.160 251.850,111.920 251.727,111.627 251.340 C 111.334 250.952,111.075 250.717,111.052 250.817 C 110.869 251.610,110.874 252.572,111.059 252.457 C 111.536 252.163,112.233 252.937,112.286 253.820 C 112.316 254.326,112.464 254.664,112.613 254.572 C 112.763 254.479,112.886 254.561,112.886 254.754 C 112.886 254.947,113.172 255.062,113.521 255.009 C 113.870 254.957,113.952 254.984,113.702 255.070 C 113.062 255.290,113.137 255.641,113.975 256.359 C 114.374 256.700,114.701 256.888,114.701 256.776 C 114.701 256.664,114.957 256.829,115.271 257.143 C 115.585 257.457,116.116 257.726,116.451 257.742 C 116.794 257.758,116.871 257.847,116.627 257.947 C 116.140 258.145,116.402 259.165,116.939 259.165 C 117.129 259.165,117.173 258.986,117.038 258.766 C 116.875 258.504,117.071 258.517,117.610 258.805 C 118.060 259.046,118.278 259.348,118.095 259.476 C 117.308 260.026,118.712 263.051,119.521 262.551 C 119.762 262.402,119.818 262.540,119.673 262.920 C 119.523 263.311,119.695 263.687,120.155 263.974 C 120.549 264.220,120.871 264.644,120.871 264.917 C 120.871 265.189,121.239 265.860,121.688 266.406 C 122.137 266.953,122.971 267.996,123.541 268.725 C 124.111 269.454,124.724 269.960,124.902 269.849 C 125.081 269.739,125.227 269.944,125.227 270.305 C 125.228 271.216,126.800 272.957,127.628 272.964 C 128.101 272.968,128.173 273.058,127.862 273.255 C 127.314 273.603,130.296 276.681,131.076 276.572 C 132.016 276.441,132.530 276.587,132.320 276.926 C 131.995 277.453,132.841 277.905,134.323 277.995 C 134.734 278.020,134.969 278.203,134.846 278.403 C 134.607 278.790,135.745 278.924,138.065 278.781 C 139.009 278.723,139.389 278.826,139.223 279.093 C 138.943 279.547,140.903 279.664,141.352 279.220 C 141.503 279.070,141.897 278.931,142.229 278.910 C 143.989 278.802,144.135 278.749,143.872 278.312 C 143.678 277.989,143.771 277.998,144.198 278.343 C 144.527 278.610,144.994 278.706,145.236 278.556 C 145.540 278.368,145.605 278.472,145.445 278.888 C 145.241 279.421,145.560 279.492,148.150 279.492 C 150.720 279.492,151.031 279.424,150.635 278.947 C 150.354 278.609,149.548 278.401,148.504 278.397 C 147.425 278.394,147.000 278.280,147.316 278.080 C 147.626 277.884,147.672 277.683,147.440 277.539 C 147.031 277.287,147.054 276.653,147.496 275.944 C 148.454 274.411,146.391 272.232,143.981 272.232 C 142.698 272.232,141.381 271.365,141.752 270.765 C 142.062 270.263,144.479 269.696,146.314 269.693 C 147.564 269.692,148.155 269.495,148.673 268.910 C 151.523 265.689,155.520 264.537,156.662 266.606 C 157.487 268.100,160.983 267.809,163.313 266.053 C 165.032 264.757,165.450 264.596,166.597 264.790 C 167.648 264.967,168.048 264.859,168.600 264.249 C 168.980 263.830,169.908 263.140,170.663 262.715 C 171.572 262.205,172.171 261.535,172.435 260.734 C 172.711 259.899,173.329 259.235,174.434 258.587 C 177.430 256.831,178.795 258.325,177.413 261.849 C 176.915 263.120,178.658 265.076,179.980 264.730 C 181.185 264.415,181.638 265.773,180.718 266.942 C 179.959 267.907,176.855 269.691,175.936 269.691 C 175.364 269.691,172.651 271.030,171.335 271.961 C 170.309 272.686,168.406 272.798,167.779 272.171 C 166.716 271.108,162.187 273.804,162.182 275.502 C 162.177 277.052,162.468 277.797,163.189 278.079 C 163.571 278.229,163.669 278.363,163.405 278.377 C 163.070 278.395,163.160 278.730,163.705 279.496 C 164.134 280.097,164.635 280.496,164.819 280.382 C 165.137 280.185,165.316 280.730,165.175 281.465 C 164.806 283.379,171.482 291.366,173.726 291.695 C 173.988 291.733,174.683 292.107,175.270 292.525 C 175.857 292.943,176.670 293.285,177.076 293.285 C 177.483 293.285,177.917 293.448,178.040 293.648 C 178.163 293.848,178.653 294.011,179.129 294.011 C 179.604 294.011,180.094 294.174,180.218 294.374 C 180.341 294.574,180.922 294.737,181.510 294.737 C 182.097 294.737,182.577 294.881,182.577 295.057 C 182.577 295.531,184.816 296.215,186.477 296.249 C 186.925 296.258,187.211 296.396,187.112 296.555 C 186.806 297.050,190.405 297.327,199.637 297.519 C 208.945 297.712,212.261 297.460,217.523 296.160 C 219.075 295.777,220.740 295.463,221.222 295.463 C 221.704 295.463,222.189 295.316,222.300 295.138 C 222.495 294.821,224.650 294.499,232.115 293.669 C 234.106 293.447,235.895 293.107,236.089 292.912 C 236.284 292.718,236.720 292.559,237.059 292.559 C 237.398 292.559,238.555 292.097,239.629 291.531 C 242.316 290.118,243.730 289.883,245.137 290.616 C 245.765 290.943,246.571 291.356,246.927 291.533 C 247.567 291.851,249.944 291.400,251.265 290.710 C 251.612 290.529,252.215 290.381,252.605 290.381 C 252.995 290.381,253.416 290.218,253.539 290.018 C 253.662 289.819,254.053 289.655,254.406 289.655 C 255.628 289.655,258.571 287.869,260.588 285.903 C 261.813 284.710,263.188 283.752,264.065 283.482 C 264.864 283.235,265.672 282.890,265.862 282.715 C 266.052 282.539,266.592 282.396,267.063 282.396 C 267.597 282.396,267.826 282.244,267.671 281.994 C 267.508 281.731,267.660 281.667,268.112 281.811 C 268.497 281.933,269.399 281.709,270.154 281.304 C 270.898 280.906,271.506 280.659,271.506 280.755 C 271.506 280.852,272.119 280.578,272.868 280.147 C 273.616 279.716,275.535 278.698,277.132 277.885 C 282.870 274.964,288.203 269.366,288.203 266.265 C 288.203 266.033,289.673 262.920,291.470 259.347 C 293.267 255.773,294.737 252.588,294.737 252.269 C 294.737 251.949,294.870 251.533,295.034 251.343 C 295.197 251.153,295.535 250.100,295.785 249.002 C 296.306 246.712,296.704 245.769,298.004 243.739 C 298.515 242.940,299.168 241.797,299.456 241.198 C 299.743 240.599,300.396 239.456,300.907 238.657 C 301.419 237.858,302.073 236.715,302.362 236.116 C 302.650 235.517,303.629 233.884,304.537 232.486 C 305.445 231.089,306.423 229.456,306.711 228.857 C 306.998 228.258,307.506 227.359,307.839 226.860 C 309.168 224.870,309.951 223.230,309.572 223.230 C 309.354 223.230,309.510 222.945,309.918 222.595 C 311.069 221.612,320.871 202.685,320.871 201.447 C 320.871 201.130,321.069 200.674,321.310 200.432 C 321.877 199.865,321.829 188.835,321.257 188.263 C 321.045 188.050,320.866 187.215,320.860 186.407 C 320.853 185.598,320.619 184.635,320.340 184.266 C 320.061 183.897,319.930 183.340,320.050 183.027 C 320.194 182.651,320.124 182.547,319.844 182.720 C 319.471 182.951,319.186 181.447,319.383 180.289 C 319.410 180.128,319.197 179.660,318.909 179.249 C 318.621 178.838,318.466 178.291,318.564 178.035 C 318.662 177.779,318.568 177.461,318.355 177.329 C 318.142 177.197,317.967 176.799,317.967 176.443 C 317.967 175.719,314.841 169.421,313.654 167.754 C 313.231 167.161,312.885 166.537,312.884 166.369 C 312.883 166.200,312.230 165.201,311.432 164.149 C 310.635 163.097,309.982 162.159,309.982 162.066 C 309.982 161.972,309.746 161.608,309.458 161.256 C 309.169 160.905,308.203 159.637,307.310 158.439 C 306.417 157.241,305.380 155.935,305.006 155.535 C 304.023 154.486,302.283 151.810,301.294 149.827 C 300.824 148.884,300.136 147.837,299.766 147.502 C 299.396 147.167,299.093 146.678,299.093 146.416 C 299.093 144.854,288.104 128.924,287.167 129.129 C 286.939 129.179,286.751 128.959,286.751 128.640 C 286.751 127.836,285.318 125.899,284.909 126.151 C 284.724 126.265,284.574 126.053,284.574 125.680 C 284.574 125.306,284.288 124.684,283.938 124.297 C 283.589 123.910,282.846 122.980,282.286 122.232 C 281.727 121.484,280.992 120.858,280.653 120.842 C 280.234 120.823,280.190 120.752,280.517 120.622 C 280.875 120.479,280.792 120.212,280.192 119.573 C 279.749 119.101,279.247 118.802,279.076 118.907 C 278.905 119.013,278.766 118.797,278.766 118.429 C 278.766 117.643,275.537 114.340,274.761 114.332 C 274.324 114.327,274.317 114.271,274.721 114.014 C 275.066 113.796,275.093 113.628,274.810 113.453 C 274.588 113.316,273.722 112.193,272.886 110.958 C 272.049 109.722,271.192 108.527,270.982 108.301 C 270.771 108.075,269.884 106.894,269.010 105.677 C 268.135 104.459,267.253 103.567,267.048 103.693 C 266.822 103.833,266.787 103.742,266.960 103.464 C 267.116 103.211,267.095 102.900,266.913 102.772 C 266.731 102.645,265.955 101.765,265.189 100.817 C 264.423 99.868,263.530 99.080,263.205 99.064 C 262.782 99.043,262.752 98.980,263.099 98.842 C 263.444 98.704,263.244 98.297,262.406 97.432 C 261.758 96.764,261.091 96.302,260.923 96.406 C 260.755 96.510,260.597 96.422,260.572 96.210 C 260.547 95.999,260.506 95.699,260.481 95.545 C 260.401 95.049,258.891 93.285,258.546 93.285 C 257.986 93.285,256.595 91.811,256.817 91.453 C 256.933 91.264,256.749 91.221,256.399 91.356 C 255.913 91.542,255.826 91.455,256.013 90.970 C 256.145 90.625,256.109 90.433,255.932 90.542 C 255.756 90.651,255.514 90.486,255.395 90.175 C 255.275 89.864,255.009 89.713,254.803 89.841 C 254.597 89.968,254.473 89.863,254.528 89.608 C 254.583 89.353,254.424 89.116,254.174 89.082 C 253.925 89.048,253.557 89.000,253.358 88.975 C 253.158 88.950,253.035 88.738,253.085 88.505 C 253.135 88.272,252.781 87.876,252.298 87.624 C 251.815 87.373,251.276 86.911,251.100 86.597 C 250.924 86.282,250.583 86.025,250.342 86.025 C 250.100 86.025,249.701 85.703,249.455 85.310 C 249.207 84.912,248.777 84.683,248.488 84.793 C 248.192 84.907,247.801 84.681,247.580 84.266 C 247.269 83.685,245.333 82.396,244.772 82.396 C 244.703 82.396,244.646 82.722,244.646 83.122 C 244.646 83.521,244.483 83.848,244.283 83.848 C 244.083 83.848,243.920 84.139,243.920 84.495 C 243.920 85.790,241.737 86.643,240.941 85.659 C 239.954 84.441,240.251 83.714,241.841 83.456 C 245.165 82.915,243.897 81.621,240.021 81.597 C 239.573 81.595,239.296 81.447,239.407 81.268 C 239.517 81.090,239.444 80.944,239.244 80.944 C 239.045 80.944,238.770 81.125,238.633 81.345 C 238.459 81.626,238.295 81.602,238.085 81.263 C 237.917 80.991,237.155 80.779,236.346 80.779 C 235.536 80.779,234.997 80.629,235.116 80.437 C 235.235 80.244,235.062 80.196,234.721 80.327 C 234.387 80.456,233.666 80.372,233.118 80.142 C 232.571 79.911,231.878 79.686,231.579 79.642 C 230.689 79.509,228.616 79.147,226.679 78.785 C 224.893 78.452,222.908 78.428,217.320 78.673 M181.221 87.738 C 181.773 87.821,182.589 87.819,183.036 87.733 C 183.482 87.647,183.031 87.578,182.033 87.581 C 181.034 87.584,180.669 87.654,181.221 87.738 M186.163 87.968 C 186.448 88.312,187.143 88.408,188.476 88.289 C 191.455 88.022,191.413 87.477,188.413 87.477 C 186.220 87.477,185.826 87.563,186.163 87.968 M192.196 87.840 C 192.319 88.040,192.747 88.203,193.146 88.203 C 193.546 88.203,193.771 88.040,193.648 87.840 C 193.525 87.641,193.097 87.477,192.698 87.477 C 192.298 87.477,192.073 87.641,192.196 87.840 M174.794 89.010 C 174.483 89.454,174.229 89.666,174.229 89.482 C 174.229 89.298,174.045 89.330,173.821 89.554 C 173.598 89.778,173.202 89.880,172.942 89.780 C 172.647 89.667,172.505 89.841,172.564 90.242 C 172.627 90.667,173.048 90.930,173.807 91.016 C 174.906 91.142,175.180 90.815,175.005 89.587 C 174.985 89.449,175.295 89.233,175.693 89.107 C 176.091 88.980,176.323 88.725,176.209 88.540 C 175.871 87.993,175.396 88.150,174.794 89.010 M190.360 89.122 C 190.747 89.415,191.319 89.636,191.630 89.613 C 192.066 89.581,192.049 89.532,191.556 89.404 C 191.205 89.312,191.010 89.086,191.124 88.902 C 191.238 88.717,190.954 88.571,190.493 88.578 C 189.678 88.589,189.674 88.604,190.360 89.122 M170.672 90.091 C 169.958 90.804,170.175 91.067,171.112 90.625 C 171.594 90.398,171.911 90.086,171.817 89.933 C 171.571 89.535,171.173 89.590,170.672 90.091 M166.316 92.269 C 165.676 92.909,165.783 93.285,166.606 93.285 C 167.090 93.285,167.332 93.043,167.332 92.559 C 167.332 91.736,166.956 91.629,166.316 92.269 M161.666 94.929 C 161.289 95.434,160.376 96.029,159.638 96.251 C 158.536 96.583,157.295 97.725,158.180 97.593 C 158.870 97.490,159.705 97.670,159.667 97.913 C 159.557 98.607,159.766 98.725,160.453 98.357 C 160.982 98.074,161.129 97.747,160.963 97.225 C 160.813 96.750,160.980 96.212,161.436 95.704 C 161.825 95.272,162.258 94.714,162.399 94.465 C 162.844 93.679,162.381 93.972,161.666 94.929 M155.378 97.430 C 155.034 97.844,155.075 97.927,155.586 97.852 C 155.936 97.801,156.285 97.569,156.363 97.337 C 156.559 96.746,155.893 96.809,155.378 97.430 M256.332 99.406 C 256.592 99.778,257.348 100.412,258.011 100.815 C 258.674 101.218,259.205 101.690,259.191 101.863 C 259.177 102.036,259.315 102.178,259.498 102.178 C 260.254 102.178,260.387 102.816,259.730 103.296 C 258.057 104.520,255.929 103.506,254.482 100.796 C 253.617 99.174,255.288 97.918,256.332 99.406 M151.063 99.558 C 150.818 99.854,150.800 100.219,151.013 100.557 C 151.383 101.141,151.414 101.103,151.539 99.909 C 151.639 98.963,151.588 98.926,151.063 99.558 M149.412 100.831 C 149.180 101.207,149.597 101.789,150.181 101.906 C 150.782 102.026,150.756 101.702,150.114 101.060 C 149.827 100.773,149.511 100.670,149.412 100.831 M148.367 102.237 C 148.616 102.337,148.820 102.651,148.820 102.934 C 148.820 103.217,148.989 103.448,149.196 103.448 C 149.451 103.448,149.447 103.215,149.183 102.722 C 148.970 102.323,148.596 102.009,148.354 102.025 C 148.021 102.047,148.025 102.099,148.367 102.237 M141.561 105.445 C 141.304 105.754,141.176 106.088,141.276 106.188 C 141.376 106.288,141.667 106.117,141.924 105.808 C 142.180 105.499,142.309 105.164,142.209 105.064 C 142.109 104.964,141.817 105.136,141.561 105.445 M243.544 105.602 C 244.148 106.731,244.012 108.881,243.319 109.146 C 242.679 109.392,241.379 108.116,241.379 107.243 C 241.379 105.328,242.815 104.240,243.544 105.602 M262.432 109.393 C 262.432 110.148,261.579 110.715,260.991 110.352 C 260.570 110.091,260.564 109.939,260.957 109.465 C 261.542 108.760,262.432 108.716,262.432 109.393 M124.319 110.871 C 123.369 111.644,123.334 111.731,124.047 111.553 C 124.496 111.441,124.864 111.195,124.864 111.007 C 124.864 110.819,125.000 110.749,125.166 110.852 C 125.333 110.955,125.469 110.801,125.469 110.510 C 125.469 110.220,125.455 109.983,125.439 109.984 C 125.422 109.985,124.918 110.384,124.319 110.871 M240.270 110.670 C 240.811 111.681,239.866 112.409,239.058 111.602 C 238.429 110.972,238.338 110.604,238.717 110.224 C 239.171 109.771,239.901 109.980,240.270 110.670 M245.999 111.821 C 246.127 112.310,246.319 112.447,246.551 112.215 C 246.926 111.840,246.631 111.071,246.111 111.071 C 245.941 111.071,245.891 111.408,245.999 111.821 M121.662 112.603 C 121.456 112.809,120.871 112.976,120.361 112.976 C 119.850 112.976,119.521 113.119,119.629 113.294 C 119.737 113.469,119.407 113.612,118.896 113.612 C 118.385 113.612,117.967 113.794,117.967 114.017 C 117.967 114.244,118.287 114.339,118.693 114.232 C 119.093 114.128,119.419 114.191,119.419 114.372 C 119.419 114.552,119.542 114.667,119.691 114.626 C 119.841 114.585,120.573 114.760,121.318 115.015 C 122.881 115.550,123.412 115.347,123.412 114.215 C 123.412 113.200,122.190 112.075,121.662 112.603 M117.090 114.247 C 116.940 114.397,116.709 114.533,116.576 114.549 C 115.839 114.642,114.338 115.460,114.338 115.769 C 114.338 115.967,114.094 116.036,113.796 115.922 C 113.498 115.808,113.163 115.953,113.051 116.244 C 112.931 116.557,112.475 116.734,111.940 116.675 C 111.109 116.584,110.232 116.973,105.754 119.418 C 104.414 120.150,101.510 122.349,102.627 121.786 C 102.918 121.639,103.004 121.750,102.870 122.100 C 102.756 122.397,102.447 122.558,102.185 122.457 C 101.922 122.356,101.599 122.448,101.467 122.661 C 101.021 123.383,103.633 123.087,104.454 122.323 C 104.882 121.924,105.413 121.597,105.632 121.597 C 105.852 121.597,105.929 121.431,105.804 121.228 C 105.679 121.025,105.412 120.961,105.211 121.085 C 105.011 121.209,105.054 120.978,105.307 120.573 C 105.732 119.892,105.803 119.882,106.234 120.444 C 106.760 121.129,107.615 120.370,107.166 119.618 C 107.041 119.409,107.208 119.456,107.537 119.723 C 108.179 120.243,108.946 119.999,108.860 119.301 C 108.741 118.345,108.922 118.001,109.437 118.199 C 109.737 118.314,109.982 118.227,109.982 118.006 C 109.982 117.785,110.237 117.604,110.548 117.604 C 110.876 117.604,111.021 117.795,110.894 118.058 C 110.773 118.308,110.950 118.140,111.286 117.685 C 111.871 116.895,111.930 116.887,112.596 117.489 C 113.286 118.114,114.225 117.577,113.759 116.824 C 113.667 116.675,113.937 116.620,114.359 116.701 C 114.829 116.792,115.457 116.518,115.980 115.995 C 116.450 115.525,116.905 115.211,116.992 115.298 C 117.078 115.384,117.236 115.122,117.343 114.715 C 117.553 113.912,117.508 113.829,117.090 114.247 M232.188 119.463 C 231.824 119.674,230.521 119.792,229.293 119.724 L 227.058 119.601 226.395 120.998 C 225.031 123.872,227.091 124.870,229.649 122.574 C 230.411 121.890,231.443 121.204,231.942 121.048 C 233.120 120.682,234.483 119.786,234.483 119.377 C 234.483 118.937,232.997 118.993,232.188 119.463 M184.203 121.875 C 183.739 122.209,182.940 123.996,182.940 124.699 C 182.940 125.385,184.636 125.398,185.316 124.718 C 185.753 124.281,185.749 124.179,185.290 124.003 C 184.682 123.770,184.552 122.323,185.139 122.323 C 185.351 122.323,185.423 122.160,185.299 121.960 C 185.035 121.533,184.713 121.508,184.203 121.875 M273.152 122.855 C 274.606 124.310,274.745 125.314,273.603 126.114 C 272.250 127.062,271.561 126.811,270.711 125.060 C 269.233 122.018,270.852 120.556,273.152 122.855 M95.506 125.719 C 95.192 126.098,95.205 126.314,95.561 126.610 C 96.300 127.223,96.951 126.628,96.387 125.856 C 95.997 125.322,95.854 125.300,95.506 125.719 M92.949 127.191 C 92.715 127.473,92.662 127.789,92.832 127.893 C 93.001 127.998,93.337 127.768,93.578 127.381 C 94.083 126.574,93.586 126.424,92.949 127.191 M94.953 126.985 C 94.828 127.188,94.902 127.464,95.118 127.597 C 95.676 127.942,96.036 127.470,95.570 127.004 C 95.310 126.743,95.107 126.737,94.953 126.985 M90.778 128.634 C 90.481 128.992,90.466 129.229,90.729 129.392 C 90.940 129.522,91.213 129.366,91.336 129.045 C 91.642 128.247,91.306 127.999,90.778 128.634 M215.417 129.443 C 216.323 130.349,215.363 131.579,213.749 131.579 C 212.666 131.579,212.509 131.456,212.403 130.529 C 212.217 128.905,214.173 128.200,215.417 129.443 M86.746 131.777 C 86.250 132.158,86.007 132.469,86.207 132.467 C 86.687 132.462,88.014 131.450,87.808 131.245 C 87.720 131.156,87.242 131.396,86.746 131.777 M146.549 132.517 C 146.197 132.722,144.156 132.977,142.011 133.085 C 137.391 133.318,134.752 134.504,136.479 135.572 C 136.679 135.695,136.842 136.508,136.842 137.378 C 136.842 140.089,138.043 140.963,139.868 139.581 C 140.271 139.275,140.993 139.150,141.697 139.264 C 142.634 139.416,143.156 139.217,144.380 138.238 C 146.507 136.537,148.550 135.005,149.131 134.673 C 149.845 134.266,149.338 133.036,148.252 132.541 C 147.176 132.051,147.345 132.053,146.549 132.517 M281.539 134.553 C 281.103 134.989,280.475 134.010,280.752 133.327 C 280.998 132.722,281.052 132.735,281.402 133.488 C 281.612 133.939,281.674 134.418,281.539 134.553 M240.588 141.512 C 240.727 142.442,239.884 142.554,239.046 141.716 C 238.445 141.116,238.310 140.396,238.720 139.985 C 239.123 139.583,240.463 140.678,240.588 141.512 M250.284 142.975 C 249.560 143.699,249.221 143.273,249.532 142.032 C 249.778 141.054,249.806 141.043,250.305 141.726 C 250.756 142.343,250.753 142.506,250.284 142.975 M161.891 142.101 C 161.243 142.881,161.724 143.812,162.703 143.673 C 163.810 143.516,164.127 141.561,163.045 141.561 C 162.657 141.561,162.138 141.804,161.891 142.101 M126.132 142.290 C 126.008 142.491,126.017 143.007,126.153 143.436 C 126.329 143.988,126.188 144.385,125.671 144.794 C 124.752 145.522,124.253 147.008,124.930 146.999 C 125.193 146.996,126.368 146.130,127.541 145.075 L 129.674 143.156 128.734 142.540 C 127.682 141.851,126.475 141.735,126.132 142.290 M211.543 144.174 C 212.180 144.811,212.074 145.936,211.251 147.286 C 209.974 149.380,210.315 150.644,212.392 151.511 C 214.203 152.268,214.882 153.470,214.882 155.917 C 214.882 158.309,215.672 159.263,224.088 167.021 C 228.015 170.640,228.941 171.325,229.914 171.325 C 231.724 171.325,232.741 172.837,231.250 173.311 C 229.707 173.800,230.255 176.283,232.395 178.494 C 233.838 179.985,234.398 179.973,236.454 178.403 C 238.241 177.040,239.709 176.766,240.078 177.728 C 240.302 178.312,240.025 178.830,238.394 180.870 C 237.614 181.845,237.607 181.922,238.202 182.866 C 240.210 186.053,241.163 190.414,239.837 190.351 C 239.487 190.334,238.426 190.292,237.477 190.256 C 235.189 190.171,231.216 186.741,231.216 184.852 C 231.216 183.915,230.867 183.448,229.141 182.079 C 227.611 180.865,226.965 180.070,226.681 179.055 C 226.340 177.833,226.154 177.665,225.036 177.570 C 224.243 177.503,223.506 177.142,223.049 176.596 C 222.041 175.390,219.709 173.866,218.872 173.866 C 216.806 173.866,213.575 169.769,214.836 168.748 C 216.709 167.232,215.289 161.995,212.490 160.094 C 211.711 159.565,211.013 158.815,210.938 158.426 C 210.758 157.487,207.666 154.521,206.261 153.939 C 205.632 153.679,204.957 153.026,204.717 152.445 C 204.482 151.878,203.978 151.132,203.597 150.787 C 202.541 149.832,202.664 148.094,203.788 148.094 C 205.641 148.094,209.800 145.427,209.800 144.239 C 209.800 143.623,210.949 143.580,211.543 144.174 M248.123 145.905 C 247.908 147.096,247.412 148.444,247.022 148.899 L 246.312 149.728 246.060 148.820 C 245.401 146.451,245.715 144.904,247.005 144.172 C 248.398 143.382,248.540 143.602,248.123 145.905 M197.774 149.942 C 198.763 150.864,198.667 151.604,197.441 152.519 C 195.997 153.596,195.281 153.079,195.281 150.959 C 195.281 148.909,196.243 148.516,197.774 149.942 M192.740 154.177 C 192.740 154.903,192.583 155.021,191.742 154.924 C 190.653 154.799,190.470 153.654,191.377 152.640 C 191.960 151.989,192.740 152.869,192.740 154.177 M113.684 153.249 C 112.674 154.259,114.630 157.089,115.981 156.570 C 116.654 156.312,116.661 156.382,115.750 154.443 C 114.966 152.776,114.453 152.479,113.684 153.249 M254.378 154.747 C 254.460 155.722,254.349 156.080,253.963 156.080 C 253.273 156.080,252.938 155.160,253.220 154.039 C 253.542 152.753,254.245 153.183,254.378 154.747 M190.065 155.263 C 189.964 155.613,189.674 156.824,189.421 157.955 L 188.960 160.011 187.387 160.137 C 185.687 160.272,185.118 159.955,185.118 158.872 C 185.118 158.323,185.298 158.224,185.983 158.396 C 186.881 158.622,186.942 158.538,188.003 155.626 C 188.434 154.442,190.402 154.096,190.065 155.263 M110.156 157.543 C 110.015 157.771,110.071 158.129,110.279 158.338 C 110.767 158.825,111.905 158.400,111.706 157.804 C 111.504 157.197,110.477 157.024,110.156 157.543 M57.875 159.378 C 57.741 159.595,57.813 159.955,58.035 160.177 C 58.332 160.473,58.439 160.369,58.439 159.782 C 58.439 158.906,58.251 158.771,57.875 159.378 M157.542 159.352 C 158.376 159.798,158.149 160.566,157.035 161.074 C 155.494 161.776,154.195 160.209,155.626 159.376 C 156.436 158.904,156.698 158.901,157.542 159.352 M200.000 165.275 C 200.000 165.541,199.755 165.759,199.456 165.759 C 199.156 165.759,198.911 165.541,198.911 165.275 C 198.911 165.009,199.156 164.791,199.456 164.791 C 199.755 164.791,200.000 165.009,200.000 165.275 M253.656 167.803 C 253.724 168.162,253.582 168.695,253.339 168.987 C 252.745 169.703,251.906 169.012,251.906 167.807 C 251.906 166.729,253.451 166.725,253.656 167.803 M129.179 169.861 C 126.333 171.067,125.410 172.301,126.475 173.478 C 127.426 174.529,127.735 174.448,129.967 172.552 C 133.760 169.332,133.392 168.076,129.179 169.861 M219.764 169.479 C 219.574 169.662,219.011 169.868,218.512 169.937 C 217.627 170.060,217.634 170.077,218.793 170.603 C 219.468 170.910,220.693 172.111,221.626 173.381 C 223.334 175.706,223.945 176.164,224.864 175.812 C 225.804 175.451,225.468 174.678,223.593 172.887 C 222.595 171.934,221.779 170.972,221.779 170.751 C 221.779 169.859,220.324 168.940,219.764 169.479 M61.879 170.871 C 62.441 172.032,62.795 172.363,62.795 171.728 C 62.795 171.551,62.460 171.020,62.051 170.548 L 61.307 169.691 61.879 170.871 M64.832 175.510 C 65.163 176.016,65.505 176.358,65.592 176.272 C 65.807 176.056,64.868 174.592,64.514 174.592 C 64.358 174.592,64.501 175.005,64.832 175.510 M163.688 176.380 C 164.157 177.257,163.812 178.241,163.128 177.978 C 162.557 177.759,162.409 175.681,162.964 175.681 C 163.156 175.681,163.482 175.995,163.688 176.380 M73.321 188.203 C 73.939 189.102,74.528 189.837,74.630 189.837 C 74.862 189.837,73.650 187.649,73.075 187.030 C 72.126 186.009,72.264 186.667,73.321 188.203 M118.646 187.874 C 118.338 188.515,117.686 189.076,116.982 189.305 C 115.352 189.834,115.364 189.813,115.105 192.650 C 115.082 192.899,114.675 193.103,114.201 193.103 C 112.377 193.103,111.709 197.921,113.444 198.559 C 114.860 199.079,118.358 196.443,118.106 195.045 C 117.930 194.069,118.065 193.779,119.023 193.071 C 120.290 192.134,120.598 189.430,119.635 187.692 L 119.151 186.818 118.646 187.874 M231.148 190.185 C 232.439 191.931,231.961 193.119,230.309 192.269 C 228.863 191.526,228.144 189.748,229.129 189.351 C 230.028 188.988,230.366 189.128,231.148 190.185 M125.227 195.061 C 125.227 196.057,124.217 196.636,123.904 195.820 C 123.610 195.055,124.017 194.192,124.671 194.192 C 125.015 194.192,125.227 194.523,125.227 195.061 M243.577 194.929 C 245.553 195.986,245.877 198.737,244.113 199.474 C 241.335 200.635,238.539 199.795,239.697 198.148 C 240.033 197.669,240.474 196.665,240.676 195.917 C 241.071 194.458,242.065 194.120,243.577 194.929 M127.339 198.602 C 127.213 199.451,126.144 200.312,125.730 199.898 C 125.588 199.756,125.658 199.231,125.886 198.731 C 126.406 197.591,127.504 197.493,127.339 198.602 M80.218 199.050 C 80.218 199.349,80.381 199.695,80.581 199.819 C 80.780 199.942,80.944 199.798,80.944 199.498 C 80.944 199.199,80.780 198.853,80.581 198.730 C 80.381 198.606,80.218 198.750,80.218 199.050 M106.427 202.461 C 105.110 203.870,104.537 205.814,104.537 208.870 L 104.537 211.305 106.496 211.060 C 108.391 210.823,108.471 210.848,108.950 211.849 C 109.223 212.418,109.961 213.128,110.590 213.429 C 112.421 214.303,116.152 217.921,116.152 218.822 C 116.152 219.290,115.458 220.279,114.450 221.244 C 112.597 223.020,112.612 223.955,114.484 223.244 C 116.252 222.572,117.582 223.857,117.675 226.328 C 117.746 228.214,118.666 227.828,119.861 225.408 C 121.431 222.232,121.334 218.336,119.651 216.994 C 118.776 216.296,118.367 215.620,118.205 214.605 C 118.080 213.827,117.651 212.893,117.250 212.530 C 116.376 211.739,116.562 208.125,117.516 207.364 C 117.977 206.997,117.994 206.749,117.620 205.846 C 117.364 205.228,117.278 204.290,117.418 203.654 C 117.692 202.403,117.276 202.184,116.620 203.234 C 115.995 204.234,114.383 204.468,112.556 203.823 C 111.689 203.517,110.584 203.267,110.100 203.267 C 109.617 203.267,108.824 202.838,108.338 202.314 L 107.455 201.361 106.427 202.461 M83.099 204.687 C 83.511 205.265,83.848 205.897,83.848 206.091 C 83.848 206.286,84.119 206.669,84.451 206.943 C 84.996 207.392,85.015 207.365,84.646 206.672 C 84.420 206.249,84.339 205.800,84.465 205.674 C 84.591 205.548,84.515 205.445,84.295 205.445 C 84.076 205.445,83.798 205.133,83.677 204.752 C 83.556 204.371,83.208 203.964,82.903 203.847 C 82.493 203.690,82.543 203.907,83.099 204.687 M98.198 217.806 C 98.328 218.017,98.071 219.085,97.627 220.179 C 96.733 222.382,95.463 222.223,95.463 219.907 C 95.463 218.258,97.506 216.688,98.198 217.806 M168.915 222.686 C 168.800 222.985,168.459 223.230,168.156 223.230 C 167.708 223.230,167.690 223.129,168.058 222.686 C 168.307 222.387,168.648 222.142,168.817 222.142 C 168.986 222.142,169.030 222.387,168.915 222.686 M107.210 228.544 C 107.743 232.431,107.439 233.425,106.022 232.432 C 104.900 231.647,104.591 230.596,104.976 228.882 C 105.551 226.319,106.878 226.119,107.210 228.544 M108.382 248.457 C 108.709 248.956,109.162 249.362,109.388 249.359 C 109.615 249.356,109.555 249.195,109.256 249.002 C 108.956 248.808,108.846 248.647,109.010 248.644 C 109.343 248.638,108.342 247.550,108.003 247.550 C 107.884 247.550,108.055 247.958,108.382 248.457 M140.976 250.409 C 141.931 251.464,142.173 253.648,141.369 253.956 C 140.534 254.277,138.969 253.396,138.421 252.297 C 137.464 250.377,139.551 248.834,140.976 250.409 M127.875 250.929 C 128.315 251.390,128.838 252.055,129.038 252.407 C 129.447 253.129,133.368 254.092,134.790 253.820 C 136.099 253.570,136.169 254.096,135.091 256.093 C 133.993 258.130,133.085 258.485,131.552 257.481 C 130.891 257.048,129.939 256.855,128.615 256.886 C 125.726 256.954,124.982 255.981,125.225 252.450 C 125.388 250.074,126.467 249.455,127.875 250.929 M151.068 252.282 C 154.077 253.118,152.970 255.377,149.728 255.020 C 147.165 254.737,146.912 254.729,146.098 254.914 C 145.263 255.104,144.465 254.587,144.465 253.858 C 144.465 253.511,144.939 253.358,146.011 253.358 C 147.164 253.358,147.672 253.173,148.010 252.632 C 148.521 251.814,149.132 251.744,151.068 252.282 M121.150 260.254 C 121.684 261.110,120.989 261.307,120.187 260.526 C 119.813 260.162,119.736 260.180,119.795 260.617 C 119.998 262.126,118.969 262.438,118.589 260.982 C 118.474 260.543,118.571 260.369,118.869 260.484 C 119.120 260.580,119.423 260.404,119.542 260.093 C 119.843 259.310,120.608 259.387,121.150 260.254 M158.834 260.798 C 159.165 262.113,158.764 262.866,157.806 262.730 C 156.862 262.596,156.499 261.242,157.185 260.416 C 157.848 259.618,158.581 259.788,158.834 260.798 M149.178 272.784 C 148.697 273.362,149.557 274.773,150.391 274.773 C 151.120 274.773,152.007 273.637,151.824 272.938 C 151.597 272.071,149.854 271.969,149.178 272.784 M150.659 277.467 C 150.144 278.087,150.519 278.355,152.065 278.473 C 152.706 278.522,153.310 278.689,153.407 278.845 C 153.664 279.261,154.265 279.191,154.265 278.744 C 154.265 278.533,154.076 278.477,153.846 278.619 C 153.576 278.786,153.526 278.718,153.705 278.427 C 153.906 278.103,154.094 278.087,154.379 278.371 C 154.930 278.923,155.354 278.863,155.354 278.233 C 155.354 277.885,155.144 277.780,154.750 277.932 C 154.360 278.081,154.234 278.021,154.394 277.762 C 154.571 277.475,154.305 277.457,153.458 277.700 C 151.965 278.128,150.068 278.140,151.156 277.714 C 151.580 277.548,151.704 277.344,151.469 277.199 C 151.255 277.067,150.891 277.188,150.659 277.467 M157.532 277.495 C 157.532 277.808,157.859 278.040,158.302 278.040 C 158.946 278.040,158.998 277.950,158.621 277.495 C 158.372 277.196,158.025 276.951,157.850 276.951 C 157.675 276.951,157.532 277.196,157.532 277.495 " stroke="none" fill="#748e82" fill-rule="evenodd"></path><path id="path1" d="M206.413 81.186 C 206.032 81.566,206.130 82.396,206.555 82.396 C 206.766 82.396,206.827 82.214,206.690 81.992 C 206.553 81.770,206.666 81.446,206.941 81.272 C 207.216 81.097,207.264 80.952,207.048 80.949 C 206.832 80.946,206.546 81.053,206.413 81.186 M219.489 83.044 C 219.166 83.402,218.987 84.018,219.092 84.417 C 219.352 85.413,216.587 87.050,215.778 86.379 C 215.489 86.139,215.342 85.800,215.450 85.625 C 215.654 85.294,214.522 83.516,214.095 83.496 C 213.961 83.490,213.585 84.287,213.259 85.268 C 212.933 86.249,212.417 87.147,212.111 87.264 C 210.849 87.748,209.196 87.467,208.482 86.646 C 207.190 85.160,207.148 84.921,208.009 84.004 C 208.464 83.520,208.731 83.020,208.603 82.892 C 208.327 82.617,206.477 83.752,206.060 84.453 C 205.899 84.723,205.205 85.179,204.517 85.466 C 203.678 85.816,203.267 86.229,203.267 86.720 C 203.267 87.948,202.064 88.305,199.998 87.692 C 199.001 87.396,198.185 87.251,198.185 87.371 C 198.185 87.491,197.858 87.212,197.459 86.751 C 196.855 86.055,196.733 86.019,196.733 86.539 C 196.733 86.989,196.539 87.102,196.038 86.943 C 195.655 86.821,195.237 86.892,195.109 87.100 C 194.981 87.307,194.549 87.477,194.150 87.477 C 193.699 87.477,193.521 87.634,193.679 87.891 C 193.860 88.183,193.574 88.240,192.702 88.087 C 192.025 87.968,190.408 88.006,189.111 88.172 C 187.489 88.379,186.592 88.346,186.242 88.066 C 185.534 87.500,178.200 87.474,177.984 88.036 C 177.892 88.277,177.417 88.381,176.879 88.278 C 176.264 88.161,176.019 88.233,176.176 88.487 C 176.309 88.702,176.091 88.980,175.693 89.107 C 175.295 89.233,174.985 89.449,175.005 89.587 C 175.181 90.825,174.908 91.142,173.775 91.013 C 173.093 90.935,172.595 90.671,172.595 90.388 C 172.595 90.118,172.368 89.822,172.091 89.729 C 171.814 89.637,171.677 89.707,171.788 89.886 C 171.898 90.065,171.594 90.398,171.112 90.625 C 170.630 90.853,170.236 90.891,170.236 90.710 C 170.236 90.159,169.692 90.340,168.769 91.198 C 168.286 91.647,167.765 91.974,167.611 91.924 C 167.458 91.874,167.332 92.160,167.332 92.559 C 167.332 93.361,165.889 93.630,165.869 92.831 C 165.863 92.564,165.714 92.624,165.507 92.979 C 165.303 93.328,164.874 93.507,164.485 93.405 C 164.053 93.292,163.382 93.659,162.602 94.437 C 161.935 95.101,161.269 95.608,161.122 95.563 C 160.975 95.518,160.908 96.052,160.973 96.749 C 161.061 97.701,160.919 98.108,160.400 98.386 C 159.761 98.728,159.559 98.597,159.667 97.913 C 159.690 97.763,159.455 97.641,159.144 97.641 C 158.788 97.641,158.679 97.472,158.850 97.187 C 159.009 96.922,158.838 96.960,158.439 97.278 C 158.041 97.595,157.869 97.633,158.028 97.368 C 158.216 97.055,158.026 96.915,157.411 96.915 C 156.921 96.915,156.429 97.152,156.318 97.442 C 156.201 97.748,155.795 97.907,155.352 97.822 C 154.435 97.645,151.563 99.178,151.510 99.872 C 151.427 100.945,151.336 101.067,151.008 100.547 C 150.719 100.090,150.592 100.083,150.197 100.502 C 149.825 100.895,149.822 101.033,150.181 101.165 C 150.431 101.256,150.635 101.481,150.635 101.664 C 150.635 102.064,149.822 101.944,149.496 101.496 C 148.918 100.701,148.492 101.711,149.048 102.560 C 149.406 103.107,149.474 103.448,149.225 103.448 C 149.002 103.448,148.820 103.221,148.820 102.943 C 148.820 102.174,147.846 101.965,147.304 102.618 C 147.040 102.936,146.854 103.294,146.891 103.413 C 146.928 103.532,146.724 103.582,146.437 103.523 C 146.151 103.464,145.917 103.672,145.917 103.984 C 145.917 104.392,145.660 104.505,145.002 104.386 C 144.424 104.281,144.173 104.359,144.321 104.599 C 144.471 104.841,144.283 104.891,143.799 104.738 C 143.250 104.564,142.820 104.753,142.234 105.427 C 141.644 106.106,141.350 106.235,141.145 105.904 C 140.922 105.543,140.773 105.542,140.414 105.901 C 140.167 106.149,139.629 106.357,139.220 106.364 C 138.810 106.370,138.174 106.604,137.805 106.883 C 137.436 107.163,136.879 107.293,136.566 107.173 C 136.234 107.046,136.091 107.106,136.222 107.319 C 136.354 107.533,135.976 107.683,135.304 107.683 C 134.675 107.683,134.101 107.862,134.028 108.080 C 133.932 108.366,133.581 108.368,132.775 108.087 C 131.956 107.801,131.474 107.808,130.986 108.113 C 130.619 108.342,129.903 108.530,129.395 108.530 C 128.887 108.530,128.381 108.765,128.271 109.051 C 128.161 109.338,127.852 109.489,127.585 109.387 C 126.938 109.139,125.170 110.322,125.468 110.804 C 125.597 111.014,125.529 111.076,125.314 110.943 C 125.101 110.811,124.871 110.863,124.804 111.058 C 124.737 111.253,124.313 111.469,123.861 111.537 C 122.585 111.730,121.995 112.485,122.777 112.926 C 124.520 113.910,123.280 115.686,121.318 115.015 C 120.573 114.760,119.841 114.585,119.691 114.626 C 119.542 114.667,119.419 114.542,119.419 114.349 C 119.419 114.156,119.158 114.098,118.838 114.220 C 118.518 114.343,118.116 114.216,117.944 113.937 C 117.686 113.520,117.515 113.556,116.982 114.136 C 116.462 114.703,116.454 114.752,116.941 114.388 C 117.467 113.993,117.521 114.034,117.348 114.694 C 117.239 115.113,117.078 115.384,116.992 115.298 C 116.905 115.211,116.450 115.525,115.980 115.995 C 115.457 116.518,114.829 116.792,114.359 116.701 C 113.937 116.620,113.667 116.675,113.759 116.824 C 114.339 117.761,113.225 118.073,112.302 117.232 C 111.760 116.738,111.419 116.514,111.545 116.734 C 111.671 116.954,111.522 117.444,111.214 117.823 C 110.906 118.202,110.757 118.308,110.884 118.058 C 111.019 117.791,110.881 117.604,110.548 117.604 C 110.237 117.604,109.982 117.785,109.982 118.006 C 109.982 118.227,109.737 118.314,109.437 118.199 C 108.922 118.001,108.741 118.345,108.860 119.301 C 108.946 119.999,108.179 120.243,107.537 119.723 C 107.208 119.456,107.041 119.409,107.166 119.618 C 107.615 120.370,106.760 121.129,106.234 120.444 C 105.803 119.882,105.732 119.892,105.307 120.573 C 105.054 120.978,105.011 121.209,105.211 121.085 C 105.412 120.961,105.679 121.025,105.804 121.228 C 105.929 121.431,105.852 121.597,105.632 121.597 C 105.413 121.597,104.882 121.924,104.454 122.323 C 103.633 123.087,101.021 123.383,101.467 122.661 C 101.599 122.448,101.922 122.356,102.185 122.457 C 102.447 122.558,102.746 122.422,102.849 122.154 C 103.218 121.193,99.555 122.764,99.151 123.741 C 99.019 124.059,98.503 124.365,98.005 124.422 C 96.660 124.574,95.943 125.401,96.537 126.116 C 96.853 126.497,96.872 126.679,96.596 126.679 C 95.833 126.679,95.644 126.606,95.715 126.340 C 95.886 125.693,94.626 126.160,93.902 127.011 C 93.463 127.527,92.899 127.966,92.650 127.985 C 91.682 128.063,91.549 128.154,91.364 128.858 C 91.238 129.342,90.981 129.512,90.599 129.365 C 90.253 129.232,89.935 129.376,89.801 129.726 C 89.678 130.047,89.390 130.309,89.161 130.309 C 88.933 130.309,88.283 130.799,87.718 131.397 C 87.152 131.996,86.471 132.486,86.202 132.486 C 85.934 132.486,85.377 132.917,84.963 133.443 C 84.549 133.969,84.211 134.263,84.211 134.096 C 84.211 133.929,83.551 134.478,82.745 135.317 C 81.939 136.156,81.134 136.842,80.957 136.842 C 80.779 136.842,80.317 137.245,79.929 137.737 C 79.542 138.230,79.122 138.529,78.996 138.403 C 78.869 138.276,78.766 138.445,78.766 138.778 C 78.766 139.111,78.592 139.383,78.378 139.383 C 77.750 139.383,75.271 141.491,71.206 145.483 C 69.111 147.540,67.124 149.419,66.790 149.657 C 65.074 150.883,62.128 153.703,62.289 153.965 C 62.391 154.130,62.261 154.274,62.000 154.286 C 61.043 154.328,58.439 157.964,58.439 159.259 C 58.439 159.930,58.302 160.394,58.135 160.290 C 57.690 160.015,57.715 164.527,58.161 165.070 C 58.369 165.323,58.557 165.856,58.580 166.254 C 58.602 166.653,58.760 166.968,58.930 166.956 C 59.099 166.943,59.557 167.578,59.947 168.366 C 60.337 169.154,60.965 169.879,61.342 169.978 C 61.720 170.077,62.364 170.869,62.774 171.739 C 63.184 172.609,64.010 173.893,64.608 174.592 C 65.207 175.290,65.697 176.065,65.698 176.313 C 65.698 176.561,66.042 177.159,66.462 177.642 C 66.882 178.125,67.206 178.618,67.181 178.738 C 67.103 179.128,71.561 185.636,72.546 186.570 C 73.599 187.569,74.855 189.634,74.578 189.910 C 74.482 190.007,74.809 190.524,75.305 191.059 C 75.801 191.594,76.251 192.150,76.306 192.295 C 76.362 192.440,76.529 192.518,76.679 192.468 C 76.828 192.418,76.951 192.614,76.951 192.904 C 76.951 193.193,77.206 193.573,77.518 193.748 C 77.830 193.922,78.121 194.309,78.165 194.607 C 78.209 194.905,78.852 196.064,79.594 197.182 C 80.336 198.301,80.944 199.488,80.944 199.822 C 80.944 200.155,81.311 200.753,81.760 201.149 C 82.210 201.546,82.373 201.766,82.123 201.640 C 81.874 201.513,81.670 201.582,81.670 201.793 C 81.670 202.005,81.833 202.178,82.033 202.178 C 82.232 202.178,82.396 202.468,82.396 202.823 C 82.396 203.178,82.681 203.738,83.031 204.068 C 84.183 205.155,84.483 205.701,84.718 207.132 C 84.756 207.362,84.982 207.785,85.221 208.073 C 85.461 208.361,85.569 208.683,85.463 208.789 C 85.357 208.895,85.604 209.069,86.012 209.176 C 86.419 209.283,86.661 209.222,86.549 209.041 C 86.437 208.860,86.589 208.711,86.886 208.711 C 87.802 208.711,88.566 207.630,88.566 206.333 C 88.566 205.341,88.728 205.063,89.383 204.930 C 91.902 204.419,92.235 204.292,92.103 203.894 C 92.023 203.655,91.440 203.311,90.806 203.129 C 89.491 202.752,89.318 201.948,90.294 200.743 L 90.934 199.953 92.523 201.156 C 93.397 201.818,94.487 202.567,94.944 202.821 C 95.402 203.075,96.109 203.810,96.515 204.454 C 96.921 205.099,98.888 207.096,100.886 208.893 C 104.086 211.771,104.519 212.303,104.528 213.363 C 104.539 214.753,105.064 215.875,106.094 216.709 C 106.694 217.195,106.823 217.754,106.843 219.958 L 106.867 222.620 108.240 223.560 C 109.504 224.426,109.732 224.841,110.183 227.094 C 110.269 227.523,111.402 228.735,112.702 229.789 C 114.001 230.843,115.064 231.945,115.064 232.237 C 115.064 233.116,118.254 237.677,119.046 237.928 C 119.520 238.078,119.782 238.476,119.782 239.044 C 119.782 241.457,122.018 241.793,122.929 239.517 C 123.586 237.876,125.214 237.520,126.037 238.838 C 126.740 239.965,129.946 239.197,129.946 237.902 C 129.946 237.094,128.432 235.572,127.629 235.572 C 125.105 235.572,125.222 233.427,127.845 231.620 C 128.701 231.030,129.927 230.005,130.570 229.342 L 131.740 228.136 132.998 228.814 C 134.526 229.636,135.818 229.397,137.055 228.063 C 138.332 226.684,137.902 224.682,136.328 224.682 C 136.074 224.682,135.558 224.343,135.182 223.927 C 134.500 223.173,134.227 223.163,131.703 223.789 C 129.534 224.327,127.412 221.296,128.643 219.417 C 128.960 218.933,129.220 218.386,129.220 218.201 C 129.220 217.749,126.532 216.697,125.377 216.697 C 123.780 216.697,123.151 216.103,122.888 214.348 C 122.752 213.444,122.512 212.704,122.354 212.704 C 120.485 212.704,119.482 208.920,120.940 207.368 C 122.098 206.136,122.152 202.326,121.027 201.243 C 119.235 199.518,119.641 194.918,121.585 194.918 C 123.340 194.918,123.980 193.237,123.796 189.111 C 123.699 186.949,124.171 185.822,126.011 183.826 C 127.489 182.223,127.529 182.117,127.166 180.759 C 126.722 179.095,126.770 179.010,128.783 177.929 C 130.023 177.263,130.660 177.141,131.910 177.328 C 133.929 177.631,135.448 176.875,136.260 175.164 C 136.593 174.463,137.081 173.761,137.345 173.605 C 138.194 173.103,138.657 171.782,138.657 169.861 C 138.657 167.862,139.026 167.345,142.322 164.713 C 143.002 164.171,144.211 163.176,145.009 162.501 C 146.548 161.202,148.339 160.436,149.838 160.436 C 150.433 160.436,151.245 159.912,152.187 158.923 C 153.349 157.701,153.974 157.355,155.433 157.124 C 156.545 156.948,157.723 156.449,158.498 155.824 C 160.486 154.223,161.960 153.540,163.430 153.540 C 164.347 153.539,164.999 153.298,165.426 152.803 C 166.875 151.123,168.268 149.892,168.958 149.682 C 170.321 149.268,172.719 147.555,173.113 146.714 C 173.328 146.255,174.070 145.643,174.760 145.354 C 175.451 145.065,176.602 144.315,177.317 143.687 C 178.529 142.623,178.710 142.572,179.962 142.937 C 182.147 143.575,183.381 143.116,187.263 140.224 C 187.345 140.163,187.141 139.814,186.810 139.447 C 186.010 138.563,186.050 138.294,186.981 138.294 C 189.759 138.294,193.489 135.419,193.446 133.311 C 193.411 131.619,192.609 129.846,191.605 129.246 C 188.500 127.388,188.385 127.273,188.385 126.047 C 188.385 125.009,188.240 124.817,187.323 124.633 C 185.826 124.334,186.275 123.412,187.917 123.412 C 188.750 123.412,189.567 123.092,190.289 122.485 C 190.895 121.975,191.624 121.648,191.910 121.758 C 192.959 122.160,195.212 120.190,196.978 117.327 C 198.059 115.574,198.453 115.388,200.560 115.637 C 202.038 115.813,202.643 115.705,203.707 115.077 C 205.212 114.189,209.451 113.703,210.887 114.254 C 211.469 114.477,212.160 114.473,212.821 114.243 C 214.488 113.661,214.861 114.460,213.469 115.631 C 211.873 116.974,211.252 118.339,211.252 120.509 C 211.252 122.281,211.198 122.383,209.982 122.891 C 209.283 123.183,208.507 123.755,208.258 124.163 C 208.008 124.571,207.232 125.248,206.534 125.666 C 203.662 127.387,201.594 128.821,200.942 129.543 C 200.474 130.061,199.813 130.309,198.899 130.309 C 196.864 130.309,196.477 131.005,197.213 133.340 C 197.669 134.787,197.727 135.545,197.455 136.495 C 197.258 137.182,197.096 138.267,197.096 138.905 C 197.096 139.544,196.933 140.167,196.733 140.290 C 196.044 140.717,196.333 143.007,197.187 143.888 C 197.636 144.352,198.184 145.038,198.403 145.414 C 198.943 146.337,201.268 146.556,201.591 145.715 C 202.052 144.513,201.160 142.501,199.910 141.924 C 199.261 141.624,198.683 141.126,198.626 140.817 C 198.502 140.142,201.347 138.176,202.054 138.448 C 202.624 138.666,202.702 139.603,202.178 139.927 C 201.724 140.208,201.700 141.810,202.145 142.085 C 203.099 142.675,204.094 141.329,204.567 138.809 C 204.711 138.041,205.220 137.102,205.731 136.663 C 206.630 135.889,206.707 133.212,205.830 133.212 C 205.661 133.212,205.428 132.967,205.313 132.668 C 204.914 131.628,206.137 132.117,207.580 133.575 C 208.979 134.988,210.241 135.419,210.719 134.647 C 210.866 134.409,211.588 134.361,212.646 134.518 L 214.338 134.769 212.622 133.455 C 211.679 132.733,210.506 132.041,210.017 131.918 C 208.811 131.616,208.569 130.785,209.466 130.026 C 209.873 129.682,210.460 128.870,210.770 128.221 C 211.277 127.163,211.494 127.042,212.883 127.042 C 213.844 127.042,214.609 126.827,214.902 126.473 C 215.161 126.161,215.825 125.671,216.378 125.386 C 217.573 124.768,218.153 125.307,217.305 126.248 C 215.958 127.743,216.166 128.625,218.168 129.923 C 219.339 130.682,220.232 131.587,220.543 132.331 C 220.882 133.143,221.435 133.667,222.277 133.971 C 222.956 134.217,223.482 134.620,223.446 134.867 C 223.341 135.584,222.465 136.479,221.868 136.479 C 221.137 136.479,218.875 138.908,218.875 139.694 C 218.875 140.036,218.344 140.619,217.695 140.990 C 213.569 143.351,214.592 145.240,219.056 143.506 C 219.855 143.195,221.151 142.835,221.937 142.705 C 223.288 142.481,223.390 142.372,223.819 140.689 C 224.312 138.754,224.753 138.285,225.819 138.564 C 227.243 138.937,230.490 136.219,230.490 134.655 C 230.490 133.323,230.781 133.157,232.006 133.790 C 233.433 134.528,234.353 134.160,234.851 132.651 C 235.383 131.041,235.808 131.073,237.377 132.840 C 239.561 135.300,242.042 134.592,240.554 131.934 C 239.893 130.752,242.480 131.370,243.540 132.647 C 244.105 133.329,245.060 133.378,245.683 132.759 C 245.934 132.509,246.906 132.305,247.843 132.305 C 249.749 132.305,250.681 130.660,249.065 130.147 C 248.314 129.909,246.461 130.582,246.461 131.093 C 246.461 131.260,246.197 131.397,245.875 131.397 C 245.185 131.397,242.831 128.939,242.831 128.217 C 242.831 126.954,242.125 126.322,241.191 126.748 C 240.696 126.974,240.288 127.418,240.285 127.735 C 240.271 129.121,239.775 129.188,237.381 128.125 C 236.086 127.550,234.427 126.978,233.694 126.852 C 231.751 126.520,231.603 125.656,233.246 124.229 C 234.828 122.854,235.308 122.789,236.564 123.777 C 238.153 125.027,239.139 123.621,237.727 122.118 L 236.979 121.322 237.952 120.556 C 238.624 120.028,238.866 119.564,238.734 119.061 C 238.502 118.172,240.180 117.984,240.517 118.861 C 240.629 119.153,241.018 119.486,241.383 119.602 C 241.747 119.717,242.213 120.295,242.419 120.886 C 242.875 122.193,243.318 122.232,244.481 121.069 C 245.515 120.035,245.577 119.678,244.828 119.056 C 244.528 118.808,244.283 118.429,244.283 118.215 C 244.283 118.001,243.860 117.384,243.343 116.844 C 241.505 114.926,244.509 112.747,246.481 114.569 C 246.991 115.041,247.575 115.426,247.779 115.426 C 247.983 115.426,248.533 115.835,249.002 116.334 C 249.762 117.143,250.145 117.241,252.537 117.241 C 256.535 117.241,257.277 116.625,255.989 114.375 C 255.503 113.526,255.447 113.114,255.750 112.622 C 256.532 111.352,253.237 110.568,251.537 111.619 C 251.421 111.690,251.100 111.609,250.823 111.437 C 250.094 110.987,251.002 109.982,252.137 109.982 C 253.368 109.982,254.670 107.872,253.909 107.110 C 253.490 106.692,253.200 106.670,252.465 107.005 C 251.812 107.303,251.260 107.316,250.560 107.049 C 249.192 106.529,248.196 106.864,246.655 108.360 C 245.927 109.067,244.810 109.743,244.172 109.863 C 242.856 110.111,241.742 110.944,241.742 111.680 C 241.742 111.954,241.334 112.333,240.835 112.523 C 240.336 112.712,239.927 113.041,239.927 113.252 C 239.927 113.463,239.363 113.969,238.673 114.376 C 237.128 115.288,236.737 116.323,237.583 117.258 C 238.254 117.999,238.329 117.936,235.651 118.879 C 235.395 118.969,235.037 118.653,234.857 118.177 C 234.373 116.905,233.856 116.722,231.041 116.821 L 228.494 116.911 226.770 115.319 C 225.579 114.220,225.045 113.440,225.045 112.801 C 225.045 111.441,223.318 110.931,222.268 111.982 C 221.967 112.283,221.548 112.423,221.337 112.293 C 221.108 112.151,221.255 111.895,221.704 111.654 C 222.731 111.103,224.682 108.339,224.682 107.435 C 224.682 106.993,225.027 106.566,225.540 106.371 C 226.012 106.192,226.497 105.787,226.618 105.472 C 226.760 105.101,227.287 104.900,228.118 104.900 C 229.385 104.900,229.671 104.707,233.332 101.361 C 233.824 100.912,234.346 100.544,234.493 100.544 C 234.641 100.544,234.846 100.218,234.951 99.819 C 235.301 98.481,236.527 98.950,237.401 100.755 C 238.261 102.533,238.998 103.071,239.661 102.408 C 239.888 102.181,240.332 101.996,240.649 101.996 C 240.966 101.996,241.873 101.661,242.664 101.252 C 243.735 100.697,244.484 100.563,245.599 100.723 C 248.324 101.115,248.131 99.763,244.947 96.140 C 242.759 93.650,242.641 93.421,243.139 92.636 C 243.354 92.297,243.686 92.263,244.344 92.513 C 245.452 92.934,246.215 92.527,246.037 91.608 C 245.894 90.867,241.578 90.637,238.882 91.228 C 237.616 91.506,236.298 90.797,236.298 89.838 C 236.298 89.202,230.721 87.477,228.667 87.477 C 226.863 87.477,224.077 85.382,222.862 83.112 C 222.365 82.183,220.306 82.142,219.489 83.044 M243.462 82.864 C 243.398 83.055,242.701 83.316,241.913 83.444 C 240.250 83.714,239.939 84.423,240.941 85.659 C 241.737 86.643,243.920 85.790,243.920 84.495 C 243.920 84.139,244.083 83.848,244.283 83.848 C 244.483 83.848,244.646 83.548,244.646 83.182 C 244.646 82.500,243.670 82.238,243.462 82.864 M191.124 88.902 C 191.010 89.086,191.205 89.312,191.556 89.404 C 192.049 89.532,192.066 89.581,191.630 89.613 C 191.319 89.636,190.747 89.415,190.360 89.122 C 189.674 88.604,189.678 88.589,190.493 88.578 C 190.954 88.571,191.238 88.717,191.124 88.902 M255.535 90.510 C 255.535 90.722,257.135 92.339,257.904 92.905 C 258.298 93.195,257.975 92.746,257.186 91.907 C 255.823 90.458,255.535 90.214,255.535 90.510 M254.436 99.286 C 252.858 101.188,257.651 104.817,259.730 103.296 C 260.387 102.816,260.254 102.178,259.498 102.178 C 259.315 102.178,259.177 102.036,259.191 101.863 C 259.205 101.690,258.674 101.218,258.011 100.815 C 257.348 100.412,256.592 99.778,256.332 99.406 C 255.755 98.584,255.056 98.540,254.436 99.286 M241.733 105.831 C 241.233 107.147,241.287 107.609,242.049 108.550 C 243.006 109.733,243.920 109.274,243.920 107.610 C 243.920 105.124,242.455 103.932,241.733 105.831 M260.957 109.465 C 260.564 109.939,260.570 110.091,260.991 110.352 C 261.579 110.715,262.432 110.148,262.432 109.393 C 262.432 108.716,261.542 108.760,260.957 109.465 M238.717 110.224 C 238.338 110.604,238.429 110.972,239.058 111.602 C 239.866 112.409,240.811 111.681,240.270 110.670 C 239.901 109.980,239.171 109.771,238.717 110.224 M246.662 111.465 C 246.796 111.682,246.746 112.020,246.551 112.215 C 246.319 112.447,246.127 112.310,245.999 111.821 C 245.793 111.033,246.245 110.790,246.662 111.465 M234.483 119.377 C 234.483 119.786,233.120 120.682,231.942 121.048 C 231.443 121.204,230.411 121.890,229.649 122.574 C 227.091 124.870,225.031 123.872,226.395 120.998 L 227.058 119.601 229.293 119.724 C 230.521 119.792,231.824 119.674,232.188 119.463 C 232.997 118.993,234.483 118.937,234.483 119.377 M185.299 121.960 C 185.423 122.160,185.351 122.323,185.139 122.323 C 184.552 122.323,184.682 123.770,185.290 124.003 C 186.106 124.316,185.052 125.227,183.873 125.227 C 182.824 125.227,182.703 124.711,183.386 123.157 C 184.023 121.709,184.832 121.203,185.299 121.960 M270.345 122.519 C 269.810 123.693,271.104 126.679,272.147 126.679 C 274.437 126.679,274.965 124.669,273.152 122.855 C 271.656 121.359,270.914 121.271,270.345 122.519 M95.735 127.617 C 95.389 127.962,94.696 127.402,94.953 126.985 C 95.107 126.737,95.310 126.743,95.570 127.004 C 95.784 127.218,95.858 127.493,95.735 127.617 M212.766 129.174 C 212.492 129.348,212.335 129.933,212.403 130.529 C 212.558 131.890,214.645 132.076,215.489 130.804 C 216.381 129.461,214.289 128.208,212.766 129.174 M148.252 132.541 C 149.338 133.036,149.845 134.266,149.131 134.673 C 148.550 135.005,146.507 136.537,144.380 138.238 C 143.156 139.217,142.634 139.416,141.697 139.264 C 140.993 139.150,140.271 139.275,139.868 139.581 C 138.043 140.963,136.842 140.089,136.842 137.378 C 136.842 136.508,136.679 135.695,136.479 135.572 C 134.752 134.504,137.391 133.318,142.011 133.085 C 144.156 132.977,146.197 132.722,146.549 132.517 C 147.345 132.053,147.176 132.051,148.252 132.541 M280.752 133.327 C 280.602 133.697,280.663 134.166,280.889 134.392 C 281.502 135.005,281.835 134.418,281.402 133.488 C 281.052 132.735,280.998 132.722,280.752 133.327 M238.720 139.985 C 238.310 140.396,238.445 141.116,239.046 141.716 C 239.884 142.554,240.727 142.442,240.588 141.512 C 240.463 140.678,239.123 139.583,238.720 139.985 M249.532 142.032 C 249.221 143.273,249.560 143.699,250.284 142.975 C 250.753 142.506,250.756 142.343,250.305 141.726 C 249.806 141.043,249.778 141.054,249.532 142.032 M163.636 142.559 C 163.503 143.713,162.042 144.200,161.664 143.215 C 161.379 142.473,162.141 141.561,163.045 141.561 C 163.601 141.561,163.726 141.773,163.636 142.559 M128.734 142.540 L 129.674 143.156 127.541 145.075 C 126.368 146.130,125.193 146.996,124.930 146.999 C 124.253 147.008,124.752 145.522,125.671 144.794 C 126.188 144.385,126.329 143.988,126.153 143.436 C 125.659 141.878,127.008 141.409,128.734 142.540 M209.800 144.239 C 209.800 145.427,205.641 148.094,203.788 148.094 C 202.664 148.094,202.541 149.832,203.597 150.787 C 203.978 151.132,204.482 151.878,204.717 152.445 C 204.957 153.026,205.632 153.679,206.261 153.939 C 207.666 154.521,210.758 157.487,210.938 158.426 C 211.013 158.815,211.711 159.565,212.490 160.094 C 215.289 161.995,216.709 167.232,214.836 168.748 C 213.575 169.769,216.806 173.866,218.872 173.866 C 219.709 173.866,222.041 175.390,223.049 176.596 C 223.506 177.142,224.243 177.503,225.036 177.570 C 226.154 177.665,226.340 177.833,226.681 179.055 C 226.965 180.070,227.611 180.865,229.141 182.079 C 230.867 183.448,231.216 183.915,231.216 184.852 C 231.216 186.741,235.189 190.171,237.477 190.256 C 238.426 190.292,239.487 190.334,239.837 190.351 C 241.163 190.414,240.210 186.053,238.202 182.866 C 237.607 181.922,237.614 181.845,238.394 180.870 C 240.025 178.830,240.302 178.312,240.078 177.728 C 239.709 176.766,238.241 177.040,236.454 178.403 C 234.398 179.973,233.838 179.985,232.395 178.494 C 230.255 176.283,229.707 173.800,231.250 173.311 C 232.741 172.837,231.724 171.325,229.914 171.325 C 228.941 171.325,228.015 170.640,224.088 167.021 C 215.672 159.263,214.882 158.309,214.882 155.917 C 214.882 153.470,214.203 152.268,212.392 151.511 C 210.315 150.644,209.974 149.380,211.251 147.286 C 212.074 145.936,212.180 144.811,211.543 144.174 C 210.949 143.580,209.800 143.623,209.800 144.239 M247.005 144.172 C 245.715 144.904,245.401 146.451,246.060 148.820 L 246.312 149.728 247.022 148.899 C 247.412 148.444,247.908 147.096,248.123 145.905 C 248.540 143.602,248.398 143.382,247.005 144.172 M195.281 150.959 C 195.281 153.079,195.997 153.596,197.441 152.519 C 198.667 151.604,198.763 150.864,197.774 149.942 C 196.243 148.516,195.281 148.909,195.281 150.959 M191.377 152.640 C 190.470 153.654,190.653 154.799,191.742 154.924 C 192.583 155.021,192.740 154.903,192.740 154.177 C 192.740 152.869,191.960 151.989,191.377 152.640 M115.750 154.443 C 116.661 156.382,116.654 156.312,115.981 156.570 C 114.630 157.089,112.674 154.259,113.684 153.249 C 114.453 152.479,114.966 152.776,115.750 154.443 M253.220 154.039 C 252.938 155.160,253.273 156.080,253.963 156.080 C 254.349 156.080,254.460 155.722,254.378 154.747 C 254.245 153.183,253.542 152.753,253.220 154.039 M188.003 155.626 C 186.942 158.538,186.881 158.622,185.983 158.396 C 185.298 158.224,185.118 158.323,185.118 158.872 C 185.118 159.955,185.687 160.272,187.387 160.137 L 188.960 160.011 189.421 157.955 C 189.674 156.824,189.964 155.613,190.065 155.263 C 190.402 154.096,188.434 154.442,188.003 155.626 M111.706 157.804 C 111.905 158.400,110.767 158.825,110.279 158.338 C 110.071 158.129,110.015 157.771,110.156 157.543 C 110.477 157.024,111.504 157.197,111.706 157.804 M155.626 159.376 C 154.195 160.209,155.494 161.776,157.035 161.074 C 158.149 160.566,158.376 159.798,157.542 159.352 C 156.698 158.901,156.436 158.904,155.626 159.376 M198.911 165.275 C 198.911 165.541,199.156 165.759,199.456 165.759 C 199.755 165.759,200.000 165.541,200.000 165.275 C 200.000 165.009,199.755 164.791,199.456 164.791 C 199.156 164.791,198.911 165.009,198.911 165.275 M251.906 167.807 C 251.906 169.012,252.745 169.703,253.339 168.987 C 253.985 168.209,253.654 167.168,252.719 167.035 C 252.066 166.942,251.906 167.094,251.906 167.807 M132.386 170.051 C 131.858 171.031,128.174 174.229,127.573 174.229 C 126.510 174.229,125.769 172.774,126.328 171.785 C 127.449 169.802,133.446 168.086,132.386 170.051 M221.115 169.748 C 221.480 170.078,221.779 170.530,221.779 170.751 C 221.779 170.972,222.595 171.934,223.593 172.887 C 225.468 174.678,225.804 175.451,224.864 175.812 C 223.945 176.164,223.334 175.706,221.626 173.381 C 220.693 172.111,219.468 170.910,218.793 170.603 C 217.634 170.077,217.627 170.060,218.512 169.937 C 219.011 169.868,219.574 169.662,219.764 169.479 C 220.231 169.030,220.347 169.053,221.115 169.748 M162.613 176.731 C 162.613 177.869,163.511 178.519,163.853 177.628 C 164.092 177.002,163.489 175.681,162.964 175.681 C 162.771 175.681,162.613 176.153,162.613 176.731 M120.132 190.404 C 120.144 192.043,120.025 192.330,119.023 193.071 C 118.065 193.779,117.930 194.069,118.106 195.045 C 118.358 196.443,114.860 199.079,113.444 198.559 C 111.709 197.921,112.377 193.103,114.201 193.103 C 114.675 193.103,115.082 192.899,115.105 192.650 C 115.364 189.813,115.352 189.834,116.982 189.305 C 117.686 189.076,118.338 188.515,118.646 187.874 L 119.151 186.818 119.635 187.692 C 119.902 188.173,120.125 189.393,120.132 190.404 M229.129 189.351 C 228.144 189.748,228.863 191.526,230.309 192.269 C 231.961 193.119,232.439 191.931,231.148 190.185 C 230.366 189.128,230.028 188.988,229.129 189.351 M123.906 194.737 C 123.589 195.564,124.035 196.387,124.669 196.144 C 125.407 195.860,125.409 194.192,124.671 194.192 C 124.365 194.192,124.021 194.437,123.906 194.737 M240.676 195.917 C 240.474 196.665,240.033 197.669,239.697 198.148 C 239.120 198.969,239.123 199.045,239.757 199.509 C 241.260 200.608,245.372 199.639,245.372 198.186 C 245.372 195.024,241.432 193.120,240.676 195.917 M125.886 198.731 C 125.658 199.231,125.588 199.756,125.730 199.898 C 126.144 200.312,127.213 199.451,127.339 198.602 C 127.504 197.493,126.406 197.591,125.886 198.731 M110.100 203.267 C 110.584 203.267,111.689 203.517,112.556 203.823 C 114.383 204.468,115.995 204.234,116.620 203.234 C 117.276 202.184,117.692 202.403,117.418 203.654 C 117.278 204.290,117.364 205.228,117.620 205.846 C 117.994 206.749,117.977 206.997,117.516 207.364 C 116.562 208.125,116.376 211.739,117.250 212.530 C 117.651 212.893,118.080 213.827,118.205 214.605 C 118.367 215.620,118.776 216.296,119.651 216.994 C 121.334 218.336,121.431 222.232,119.861 225.408 C 118.666 227.828,117.746 228.214,117.675 226.328 C 117.582 223.857,116.252 222.572,114.484 223.244 C 112.612 223.955,112.597 223.020,114.450 221.244 C 115.458 220.279,116.152 219.290,116.152 218.822 C 116.152 217.921,112.421 214.303,110.590 213.429 C 109.961 213.128,109.223 212.418,108.950 211.849 C 108.471 210.848,108.391 210.823,106.496 211.060 L 104.537 211.305 104.537 208.870 C 104.537 205.814,105.110 203.870,106.427 202.461 L 107.455 201.361 108.338 202.314 C 108.824 202.838,109.617 203.267,110.100 203.267 M96.189 218.149 C 95.276 219.062,95.252 220.750,96.141 221.554 C 96.791 222.142,96.853 222.085,97.627 220.179 C 98.702 217.529,97.917 216.421,96.189 218.149 M168.058 222.686 C 167.690 223.129,167.708 223.230,168.156 223.230 C 168.459 223.230,168.800 222.985,168.915 222.686 C 169.030 222.387,168.986 222.142,168.817 222.142 C 168.648 222.142,168.307 222.387,168.058 222.686 M105.737 227.147 C 104.409 227.991,104.594 231.432,106.022 232.432 C 107.439 233.425,107.743 232.431,107.210 228.544 C 106.986 226.910,106.635 226.576,105.737 227.147 M98.499 230.232 C 98.544 230.533,98.776 231.015,99.015 231.303 C 99.254 231.592,99.342 231.935,99.210 232.066 C 99.079 232.197,99.162 232.305,99.395 232.305 C 100.049 232.305,99.896 231.269,99.119 230.435 C 98.617 229.896,98.442 229.838,98.499 230.232 M107.825 241.950 C 107.137 242.248,106.321 242.395,106.010 242.277 C 105.557 242.105,105.535 242.153,105.898 242.519 C 106.148 242.771,106.352 243.200,106.352 243.474 C 106.352 243.865,106.230 243.850,105.782 243.402 C 104.997 242.617,104.804 242.687,105.347 243.557 C 105.597 243.956,105.925 244.283,106.076 244.283 C 106.228 244.283,106.352 244.615,106.352 245.020 C 106.352 245.426,106.596 245.851,106.894 245.966 C 107.193 246.080,107.357 246.303,107.260 246.460 C 107.163 246.618,107.560 247.126,108.142 247.590 C 108.725 248.053,109.123 248.561,109.026 248.717 C 108.929 248.874,109.023 249.002,109.234 249.002 C 109.446 249.002,109.593 249.124,109.561 249.274 C 109.443 249.834,112.307 254.809,112.748 254.809 C 113.024 254.809,111.931 252.776,111.330 252.170 C 110.973 251.810,110.794 251.334,110.931 251.111 C 111.099 250.841,111.344 250.928,111.671 251.376 C 111.940 251.743,112.160 251.850,112.160 251.612 C 112.160 251.035,112.748 251.067,114.515 251.742 C 115.958 252.293,116.878 253.839,116.878 255.711 C 116.878 256.014,117.123 256.261,117.423 256.261 C 118.378 256.261,118.107 253.883,117.019 252.714 C 116.355 251.999,116.050 251.242,115.998 250.179 C 115.909 248.351,114.967 247.187,113.576 247.187 C 112.370 247.187,111.434 246.034,111.434 244.547 C 111.434 241.894,110.125 240.952,107.825 241.950 M138.384 250.583 C 137.891 251.665,138.468 252.940,139.785 253.679 C 141.247 254.500,142.061 253.984,141.804 252.399 C 141.404 249.934,139.210 248.770,138.384 250.583 M125.639 250.726 C 125.452 251.075,125.266 251.851,125.225 252.450 C 124.982 255.981,125.726 256.954,128.615 256.886 C 129.939 256.855,130.891 257.048,131.552 257.481 C 133.085 258.485,133.993 258.130,135.091 256.093 C 136.169 254.096,136.099 253.570,134.790 253.820 C 133.368 254.092,129.447 253.129,129.038 252.407 C 127.871 250.348,126.265 249.554,125.639 250.726 M148.010 252.632 C 147.672 253.173,147.164 253.358,146.011 253.358 C 144.939 253.358,144.465 253.511,144.465 253.858 C 144.465 254.587,145.263 255.104,146.098 254.914 C 146.912 254.729,147.165 254.737,149.728 255.020 C 151.913 255.261,153.041 254.649,152.655 253.432 C 152.210 252.031,148.757 251.436,148.010 252.632 M114.701 256.998 C 114.701 257.232,115.307 258.019,116.049 258.748 C 116.790 259.476,117.358 260.207,117.310 260.372 C 117.262 260.536,117.393 260.566,117.601 260.437 C 117.809 260.309,117.894 260.066,117.790 259.897 C 117.685 259.728,117.805 259.522,118.055 259.438 C 118.332 259.346,118.174 259.107,117.650 258.827 C 117.114 258.540,116.884 258.517,117.038 258.766 C 117.173 258.986,117.129 259.165,116.939 259.165 C 116.402 259.165,116.140 258.145,116.627 257.947 C 116.871 257.847,116.794 257.758,116.451 257.742 C 116.116 257.726,115.585 257.457,115.271 257.143 C 114.918 256.790,114.701 256.734,114.701 256.998 M174.346 258.629 C 173.334 259.236,172.698 259.937,172.433 260.741 C 172.171 261.534,171.569 262.206,170.663 262.715 C 169.908 263.140,168.980 263.830,168.600 264.249 C 168.048 264.859,167.648 264.967,166.597 264.790 C 165.450 264.596,165.032 264.757,163.313 266.053 C 160.983 267.809,157.487 268.100,156.662 266.606 C 155.520 264.537,151.523 265.689,148.673 268.910 C 148.155 269.495,147.564 269.692,146.314 269.693 C 144.479 269.696,142.062 270.263,141.752 270.765 C 141.381 271.365,142.698 272.232,143.981 272.232 C 146.391 272.232,148.454 274.411,147.496 275.944 C 147.054 276.653,147.031 277.287,147.440 277.539 C 147.672 277.683,147.626 277.884,147.316 278.080 C 147.001 278.280,147.435 278.394,148.527 278.397 C 149.463 278.400,150.330 278.566,150.454 278.766 C 150.748 279.241,153.430 279.236,153.724 278.760 C 153.850 278.557,154.129 278.501,154.346 278.635 C 154.567 278.771,154.637 278.711,154.505 278.497 C 154.375 278.287,154.513 278.022,154.812 277.908 C 155.141 277.781,155.354 277.909,155.354 278.233 C 155.354 278.526,155.527 278.766,155.738 278.766 C 155.950 278.766,156.032 278.620,155.922 278.441 C 155.811 278.262,155.974 278.019,156.282 277.901 C 156.604 277.777,156.749 277.839,156.622 278.044 C 156.500 278.241,156.588 278.403,156.818 278.403 C 157.048 278.403,157.322 278.076,157.427 277.677 C 157.644 276.847,157.931 276.769,158.540 277.378 C 158.867 277.705,159.152 277.642,159.763 277.106 C 160.202 276.721,160.441 276.611,160.295 276.860 C 160.149 277.110,160.189 277.314,160.384 277.314 C 160.579 277.314,160.820 277.110,160.921 276.860 C 161.068 276.497,161.110 276.497,161.133 276.860 C 161.149 277.110,161.494 277.314,161.900 277.314 C 162.518 277.314,162.578 277.199,162.263 276.612 C 161.244 274.708,166.260 270.652,167.767 272.159 C 168.405 272.797,170.302 272.691,171.335 271.961 C 172.651 271.030,175.364 269.691,175.936 269.691 C 176.855 269.691,179.959 267.907,180.718 266.942 C 181.631 265.782,181.185 264.415,179.996 264.726 C 178.928 265.005,177.010 263.257,177.318 262.286 C 178.160 259.622,178.137 258.389,177.237 258.047 C 176.055 257.598,176.073 257.594,174.346 258.629 M119.542 260.093 C 119.423 260.404,119.120 260.580,118.869 260.484 C 118.571 260.369,118.474 260.543,118.589 260.982 C 118.969 262.438,119.998 262.126,119.795 260.617 C 119.736 260.180,119.813 260.162,120.187 260.526 C 120.989 261.307,121.684 261.110,121.150 260.254 C 120.608 259.387,119.843 259.310,119.542 260.093 M157.185 260.416 C 156.499 261.242,156.862 262.596,157.806 262.730 C 158.764 262.866,159.165 262.113,158.834 260.798 C 158.581 259.788,157.848 259.618,157.185 260.416 M151.824 272.938 C 152.007 273.637,151.120 274.773,150.391 274.773 C 149.557 274.773,148.697 273.362,149.178 272.784 C 149.854 271.969,151.597 272.071,151.824 272.938 M151.156 277.714 C 150.053 278.146,151.975 278.126,153.496 277.689 C 154.674 277.351,154.696 277.363,154.104 278.017 C 153.182 279.037,149.781 278.525,150.635 277.495 C 150.880 277.200,151.255 277.067,151.469 277.199 C 151.704 277.344,151.580 277.548,151.156 277.714 M143.872 278.312 C 144.135 278.749,143.989 278.802,142.229 278.910 C 141.897 278.931,141.494 279.079,141.331 279.240 C 141.169 279.401,141.999 279.483,143.175 279.422 C 144.601 279.347,145.370 279.142,145.481 278.806 C 145.585 278.491,145.488 278.401,145.222 278.565 C 144.987 278.710,144.527 278.610,144.198 278.343 C 143.771 277.998,143.678 277.989,143.872 278.312 M137.659 279.016 C 138.008 279.107,138.580 279.107,138.929 279.016 C 139.279 278.925,138.993 278.850,138.294 278.850 C 137.595 278.850,137.309 278.925,137.659 279.016 " stroke="none" fill="#b9d6d8" fill-rule="evenodd"></path></g></svg>